<?xml version="1.0" standalone="no"?>
<!DOCTYPE svg PUBLIC "-//W3C//DTD SVG 20010904//EN"
 "http://www.w3.org/TR/2001/REC-SVG-20010904/DTD/svg10.dtd">
<svg version="1.0" xmlns="http://www.w3.org/2000/svg"
 width="435.000000pt" height="435.000000pt" viewBox="0 0 435.000000 435.000000"
 preserveAspectRatio="xMidYMid meet">
<metadata>
Created by potrace 1.14, written by Peter Selinger 2001-2017
</metadata>
<g transform="translate(0.000000,435.000000) scale(0.100000,-0.100000)"
fill="#000000" stroke="none">
<path d="M23 3035 c3 -728 8 -1077 15 -1115 7 -30 14 -73 18 -95 11 -74 63
-264 100 -362 107 -288 269 -538 493 -764 212 -212 398 -338 704 -473 56 -26
270 -94 314 -100 21 -4 52 -10 68 -15 17 -5 52 -12 78 -16 27 -4 56 -8 65 -10
157 -29 561 -17 692 20 8 2 29 7 45 10 17 2 40 7 53 10 12 3 30 7 41 9 85 19
301 102 416 160 219 111 393 235 550 392 362 362 574 808 630 1325 5 40 10
1971 6 2069 -1 13 -245 15 -2147 15 l-2145 0 4 -1060z"/>
</g>
</svg>
